<?xml version="1.0" encoding="iso-8859-1"?>
<!-- Generator: Adobe Illustrator 19.0.0, SVG Export Plug-In . SVG Version: 6.00 Build 0)  -->
<svg version="1.1" id="Capa_1" xmlns="http://www.w3.org/2000/svg" xmlns:xlink="http://www.w3.org/1999/xlink" x="0px" y="0px"
	 viewBox="0 0 511.999 511.999" style="enable-background:new 0 0 511.999 511.999;" xml:space="preserve">
<g>
	<g>
		<g>
			<path d="M108.015,379.818C106.595,381.202,108.104,379.735,108.015,379.818L108.015,379.818z"/>
			<path d="M405.216,68.816l-67.29-66.615c-2.986-2.955-7.802-2.932-10.759,0.054c-2.956,2.986-2.931,7.803,0.054,10.759
				l39.302,38.908l-57.689-24.355c-3.02-1.277-6.402-0.443-8.519,1.827c-0.056,0.054-0.117,0.101-0.172,0.157
				c-2.956,2.986-2.931,7.803,0.054,10.759l39.273,38.879l-57.649-24.338c-3.029-1.28-6.418-0.438-8.533,1.842
				c-0.053,0.051-0.11,0.095-0.162,0.148c-2.956,2.986-2.931,7.803,0.054,10.759l39.26,38.866l-57.63-24.329
				c-3.026-1.279-6.411-0.44-8.527,1.835c-0.056,0.054-0.117,0.101-0.172,0.157c-2.956,2.986-2.931,7.803,0.054,10.759
				l39.253,38.859l-57.621-24.326c-2.98-1.26-6.312-0.466-8.433,1.734c-0.032,0.031-0.067,0.058-0.099,0.091
				c-2.956,2.986-2.931,7.803,0.054,10.759l39.672,39.275l-58.206-24.573c-2.979-1.259-6.304-0.467-8.426,1.727
				c-0.036,0.035-0.074,0.064-0.11,0.1c-2.956,2.986-2.931,7.803,0.055,10.759l39.666,39.268l-58.197-24.569
				c-2.98-1.259-6.311-0.466-8.432,1.733c-0.033,0.032-0.068,0.059-0.1,0.092c-2.956,2.986-2.931,7.803,0.054,10.759l39.672,39.274
				l-58.207-24.573c-2.984-1.261-6.318-0.464-8.438,1.74c-0.031,0.031-0.065,0.056-0.096,0.087
				c-2.956,2.986-2.931,7.803,0.054,10.759l39.666,39.269l-58.198-24.57c-3.004-1.269-6.363-0.452-8.482,1.787
				c-0.044,0.042-0.091,0.079-0.134,0.123c-2.956,2.986-2.931,7.803,0.054,10.759l39.458,39.063l-57.907-24.447
				c-3.005-1.27-6.367-0.452-8.486,1.791c-0.044,0.042-0.091,0.079-0.134,0.122c-2.956,2.986-2.931,7.803,0.055,10.759
				l39.451,39.056l-57.899-24.443c-2.978-1.259-6.303-0.468-8.424,1.725c-0.035,0.034-0.073,0.063-0.108,0.098
				c-2.956,2.986-2.931,7.803,0.054,10.759l39.673,39.276l-58.207-24.574c-2.979-1.259-6.309-0.466-8.431,1.732
				c-0.034,0.033-0.071,0.062-0.104,0.095c-2.956,2.986-2.931,7.803,0.055,10.759l39.665,39.267l-58.195-24.568
				c-3.029-1.281-6.417-0.44-8.531,1.84c-0.056,0.053-0.116,0.1-0.17,0.156c-2.956,2.986-2.931,7.803,0.054,10.759l67.292,66.617
				c3.149,3.118,8.437,2.826,11.243-0.594c2.456-2.992,2.209-7.5-0.539-10.22l-40.093-39.691l58.793,24.82
				c2.802,1.191,6.091,0.549,8.264-1.57c3.152-2.903,3.272-7.979,0.215-11.006l-39.674-39.276l58.207,24.574
				c3.595,1.519,7.826-0.053,9.742-3.416c1.684-2.954,1.153-6.781-1.261-9.171l-39.665-39.268l58.197,24.569
				c3.532,1.493,7.702,0.016,9.617-3.279c1.719-2.957,1.206-6.813-1.224-9.219l-39.886-39.487l58.505,24.699
				c3.532,1.492,7.699,0.016,9.617-3.277c1.722-2.958,1.211-6.817-1.221-9.224l-39.878-39.479l58.494,24.695
				c3.593,1.518,7.823-0.051,9.739-3.413c1.684-2.954,1.153-6.781-1.261-9.171l-39.673-39.276l58.207,24.573
				c3.594,1.519,7.826-0.052,9.742-3.415c1.684-2.954,1.153-6.781-1.261-9.171l-39.666-39.268l58.197,24.569
				c3.593,1.519,7.823-0.051,9.739-3.413c1.684-2.954,1.153-6.781-1.261-9.171l-39.673-39.275l58.207,24.573
				c3.595,1.518,7.825-0.052,9.741-3.415c1.684-2.954,1.153-6.781-1.261-9.171L257.65,138.54l58.197,24.57
				c3.393,1.435,7.455,0.142,9.406-2.974c1.86-2.972,1.41-6.969-1.091-9.445l-40.085-39.683l58.782,24.816
				c3.417,1.445,7.504,0.122,9.44-3.03c1.83-2.98,1.348-6.919-1.123-9.391l-40.079-39.677l58.774,24.813
				c3.409,1.44,7.495,0.116,9.439-3.025c1.84-2.974,1.368-6.942-1.116-9.401L338.129,56.45l58.754,24.804
				c3.393,1.434,7.449,0.126,9.41-2.974C408.178,75.301,407.721,71.296,405.216,68.816z"/>
		</g>
	</g>
</g>
<g>
	<g>
		<g>
			<path d="M509.303,181.993C511.94,178.999,509.213,182.094,509.303,181.993L509.303,181.993z"/>
			<path d="M509.305,181.99c2.634-2.993,2.518-7.633-0.329-10.452l-67.292-66.617c-2.985-2.955-7.802-2.931-10.759,0.054
				c-2.956,2.986-2.931,7.803,0.054,10.759l39.302,38.908l-57.689-24.355c-3.029-1.28-6.416-0.44-8.531,1.839
				c-0.052,0.05-0.108,0.094-0.159,0.145c-2.956,2.986-2.931,7.803,0.054,10.759l39.274,38.88l-57.65-24.338
				c-3.027-1.279-6.415-0.439-8.531,1.84c-0.054,0.052-0.112,0.097-0.165,0.151c-2.956,2.986-2.931,7.803,0.054,10.759l39.26,38.866
				l-57.63-24.329c-3.029-1.279-6.415-0.44-8.53,1.838c-0.055,0.053-0.115,0.099-0.169,0.154c-2.956,2.986-2.931,7.803,0.054,10.759
				l39.252,38.859l-57.621-24.326c-2.98-1.259-6.308-0.466-8.43,1.731c-0.033,0.032-0.07,0.06-0.103,0.094
				c-2.956,2.986-2.931,7.803,0.054,10.759l39.672,39.275l-58.206-24.573c-2.978-1.258-6.304-0.467-8.425,1.726
				c-0.036,0.035-0.075,0.065-0.11,0.101c-2.956,2.986-2.931,7.803,0.055,10.759l39.666,39.268l-58.197-24.569
				c-2.979-1.258-6.309-0.466-8.43,1.731c-0.033,0.032-0.069,0.06-0.102,0.094c-2.956,2.986-2.931,7.803,0.054,10.759l39.671,39.274
				l-58.206-24.573c-2.984-1.261-6.315-0.465-8.435,1.737c-0.032,0.032-0.068,0.059-0.1,0.091
				c-2.956,2.986-2.931,7.803,0.054,10.759l39.666,39.268l-58.197-24.569c-3.002-1.269-6.358-0.454-8.477,1.782
				c-0.046,0.044-0.095,0.083-0.14,0.128c-2.956,2.986-2.931,7.803,0.054,10.759l39.459,39.063l-57.908-24.447
				c-3.007-1.27-6.368-0.451-8.486,1.791c-0.044,0.042-0.091,0.079-0.134,0.122c-2.956,2.986-2.931,7.803,0.054,10.759
				l39.452,39.057l-57.899-24.443c-2.979-1.258-6.305-0.468-8.426,1.727c-0.034,0.034-0.072,0.063-0.106,0.097
				c-2.956,2.986-2.931,7.803,0.054,10.759l39.674,39.276l-58.207-24.574c-2.979-1.26-6.31-0.466-8.432,1.733
				c-0.034,0.033-0.07,0.061-0.104,0.094c-2.956,2.986-2.931,7.803,0.055,10.759l39.665,39.268l-58.197-24.569
				c-3.031-1.28-6.42-0.438-8.535,1.844c-0.055,0.052-0.113,0.098-0.166,0.152c-2.956,2.986-2.931,7.803,0.054,10.759l67.291,66.617
				c1.483,1.468,3.418,2.201,5.352,2.201c1.959,0,3.919-0.753,5.407-2.256c2.956-2.986,2.931-7.803-0.054-10.759l-40.092-39.691
				l58.793,24.82c0.966,0.408,1.969,0.601,2.956,0.601c1.982,0,3.887-0.794,5.307-2.179c0.09-0.082,0.183-0.158,0.27-0.246
				c2.956-2.986,2.931-7.803-0.054-10.759l-39.674-39.276l58.207,24.574c3.595,1.519,7.825-0.053,9.742-3.416
				c1.684-2.954,1.153-6.781-1.261-9.171l-39.665-39.267l58.196,24.568c3.53,1.491,7.697,0.018,9.614-3.273
				c1.723-2.958,1.211-6.817-1.22-9.225l-39.886-39.486l58.505,24.699c3.532,1.493,7.7,0.015,9.617-3.277
				c1.722-2.958,1.21-6.817-1.221-9.224l-39.879-39.479l58.495,24.695c3.593,1.519,7.823-0.052,9.739-3.413
				c1.684-2.954,1.153-6.781-1.261-9.171l-39.674-39.276l58.208,24.574c3.594,1.519,7.825-0.053,9.741-3.415
				c1.684-2.954,1.153-6.781-1.261-9.171l-39.666-39.269l58.198,24.569c3.593,1.519,7.823-0.051,9.739-3.413
				c1.684-2.954,1.153-6.781-1.261-9.171l-39.672-39.274l58.206,24.573c3.594,1.519,7.826-0.052,9.742-3.415
				c1.684-2.954,1.153-6.781-1.261-9.171l-39.666-39.269l58.198,24.57c5.215,2.182,11.1-2.124,10.532-7.754
				c-0.135-1.38-0.652-2.727-1.538-3.88c-0.037-0.048-0.071-0.099-0.109-0.146c-0.094-0.116-0.197-0.227-0.298-0.338
				c-0.071-0.079-0.14-0.159-0.215-0.235c-0.021-0.021-0.038-0.044-0.059-0.064l-40.085-39.684l58.783,24.816
				c3.407,1.463,7.512,0.11,9.44-3.03c1.83-2.98,1.348-6.919-1.123-9.39l-40.079-39.677l58.773,24.813
				c3.416,1.444,7.505,0.112,9.448-3.038c1.833-2.972,1.355-6.933-1.124-9.388l-40.064-39.663l58.754,24.804
				c2.984,1.26,6.518,0.42,8.661-1.981c-0.021,0.023-0.055,0.062,0.002-0.002C509.319,181.975,509.314,181.98,509.305,181.99z"/>
		</g>
	</g>
</g>
<g>
</g>
<g>
</g>
<g>
</g>
<g>
</g>
<g>
</g>
<g>
</g>
<g>
</g>
<g>
</g>
<g>
</g>
<g>
</g>
<g>
</g>
<g>
</g>
<g>
</g>
<g>
</g>
<g>
</g>
</svg>
