<svg id="Layer_5" enable-background="new 0 0 64 64" height="512" viewBox="0 0 64 64" width="512" xmlns="http://www.w3.org/2000/svg"><path d="m52.808 1c-2.722 0-5.281 1.061-7.207 2.985l-3.015 3.015 2 2-1.586 1.586-.672-.672c-.589-.59-1.373-.914-2.207-.914-1.721 0-3.121 1.4-3.121 3.121 0 .822.333 1.626.914 2.207l.672.672-1.586 1.586-.672-.672c-.589-.59-1.373-.914-2.207-.914-1.721 0-3.121 1.4-3.121 3.121 0 .822.333 1.626.914 2.207l.672.672-1.586 1.586-.672-.672c-.589-.59-1.373-.914-2.207-.914-1.721 0-3.121 1.4-3.121 3.121 0 .822.333 1.626.914 2.207l.672.672-1.586 1.586-2-2-6.414 6.414 2 2-9 9 3 3-1.586 1.586-1-1-2 2-3-3-4.414 4.414 3 3-2.586 2.586v.414c0 3.309 2.691 6 6 6h.414l2.586-2.586 3 3 4.414-4.414-3-3 2-2-1-1 1.586-1.586 3 3 9-9 2 2 6.414-6.414-2-2 1.586-1.586.672.672c.589.59 1.373.914 2.207.914 1.721 0 3.121-1.4 3.121-3.121 0-.822-.333-1.626-.914-2.207l-.672-.672 1.586-1.586.672.672c.589.59 1.373.914 2.207.914 1.721 0 3.121-1.4 3.121-3.121 0-.822-.333-1.626-.914-2.207l-.672-.672 1.586-1.586.672.672c.589.59 1.373.914 2.207.914 1.721 0 3.121-1.4 3.121-3.121 0-.822-.333-1.626-.914-2.207l-.672-.672 1.586-1.586 2 2 3.015-3.015c1.925-1.924 2.985-4.484 2.985-7.207 0-5.62-4.572-10.192-10.192-10.192zm-49.394 50 1.586-1.586 1.586 1.586-1.586 1.586zm3.191 9.98c-1.891-.186-3.399-1.694-3.585-3.586l6.98-6.98 3.586 3.586zm7.981-1.98-1.586 1.586-1.586-1.586 1.586-1.586zm-.586-7.414-1.586-1.586 1.586-1.586 1.586 1.586zm6 0-7.586-7.586 7.586-7.586 7.586 7.586zm11-7-11.586-11.586 3.586-3.586 11.586 11.586zm3-7-7.586-7.586 1.586-1.586 7.586 7.586zm5.879-.586c-.3 0-.581-.116-.793-.328l-11.758-11.758c-.208-.209-.328-.498-.328-.793 0-.618.503-1.121 1.121-1.121.3 0 .581.116.793.328l11.758 11.758c.208.209.328.498.328.793 0 .618-.503 1.121-1.121 1.121zm.121-5.414-7.586-7.586 1.586-1.586 7.586 7.586zm5.879-.586c-.3 0-.581-.116-.793-.328l-11.758-11.758c-.208-.209-.328-.498-.328-.793 0-.618.503-1.121 1.121-1.121.3 0 .581.116.793.328l11.758 11.758c.208.209.328.498.328.793 0 .618-.503 1.121-1.121 1.121zm.121-5.414-7.586-7.586 1.586-1.586 7.586 7.586zm5.879-.586c-.3 0-.581-.116-.793-.328l-11.758-11.758c-.208-.209-.328-.498-.328-.793 0-.618.503-1.121 1.121-1.121.3 0 .581.116.793.328l11.758 11.758c.208.209.328.498.328.793 0 .618-.503 1.121-1.121 1.121zm.121-5.414-7.586-7.586 1.586-1.586 7.586 7.586zm6.601-2.601-1.601 1.601-11.586-11.586 1.601-1.601c1.547-1.546 3.605-2.399 5.793-2.399 4.517 0 8.192 3.675 8.192 8.192 0 2.189-.852 4.246-2.399 5.793z"/><path d="m25.536 35.535h2v2h-2z" transform="matrix(.707 -.707 .707 .707 -18.062 29.464)"/><path d="m22.707 32.707h2v2h-2z" transform="matrix(.707 -.707 .707 .707 -16.891 26.636)"/><path d="m28.364 38.364h2v2h-2z" transform="matrix(.707 -.707 .707 .707 -19.234 32.293)"/><path d="m16.464 41.535h2v2h-2z" transform="matrix(.707 -.707 .707 .707 -24.962 24.807)"/><path d="m19.293 38.707h2v2h-2z" transform="matrix(.707 -.707 .707 .707 -22.133 25.979)"/></svg>